<svg xmlns="http://www.w3.org/2000/svg" viewBox="0 0 320 80" width="320" height="80" style="image-rendering: pixelated;">
  <!-- Frame 1: Running - front legs forward -->
  <g id="frame1" transform="translate(0,0)">
    <!-- Body (larger and more blocky) -->
    <rect x="12" y="32" width="40" height="20" fill="#E91E63"/>
    <!-- Neck -->
    <rect x="52" y="24" width="12" height="20" fill="#E91E63"/>
    <!-- Head (bigger and blockier) -->
    <rect x="64" y="16" width="16" height="16" fill="#F8BBD9"/>
    <!-- Snout -->
    <rect x="80" y="22" width="6" height="8" fill="#FFFFFF"/>
    <!-- Mane (more blocky, higher contrast) -->
    <rect x="56" y="12" width="8" height="12" fill="#FF4081"/>
    <rect x="48" y="16" width="8" height="8" fill="#E91E63"/>
    <rect x="44" y="20" width="4" height="4" fill="#F8BBD9"/>
    <!-- Ears (bigger) -->
    <rect x="68" y="12" width="4" height="6" fill="#F8BBD9"/>
    <rect x="74" y="12" width="4" height="6" fill="#F8BBD9"/>
    <!-- Eye (much larger and more expressive) -->
    <rect x="70" y="20" width="6" height="4" fill="#000"/>
    <rect x="72" y="18" width="2" height="2" fill="#FFF"/>
    <!-- Front legs (thicker, more blocky) -->
    <rect x="20" y="52" width="6" height="16" fill="#E91E63"/>
    <rect x="32" y="52" width="6" height="20" fill="#E91E63"/>
    <!-- Back legs (thicker) -->
    <rect x="40" y="52" width="6" height="20" fill="#E91E63"/>
    <rect x="48" y="52" width="6" height="16" fill="#E91E63"/>
    <!-- Hooves (more contrast) -->
    <rect x="20" y="68" width="6" height="4" fill="#9C27B0"/>
    <rect x="32" y="72" width="6" height="4" fill="#9C27B0"/>
    <rect x="40" y="72" width="6" height="4" fill="#9C27B0"/>
    <rect x="48" y="68" width="6" height="4" fill="#9C27B0"/>
    <!-- Tail (bigger, more flowing) -->
    <rect x="8" y="38" width="6" height="12" fill="#FF4081"/>
    <rect x="2" y="44" width="6" height="8" fill="#E91E63"/>
    <rect x="0" y="48" width="4" height="4" fill="#F8BBD9"/>
  </g>
  
  <!-- Frame 2: Running - back legs forward -->
  <g id="frame2" transform="translate(80,0)">
    <!-- Body (larger and more blocky) -->
    <rect x="12" y="34" width="40" height="20" fill="#E91E63"/>
    <!-- Neck -->
    <rect x="52" y="26" width="12" height="20" fill="#E91E63"/>
    <!-- Head (bigger and blockier) -->
    <rect x="64" y="18" width="16" height="16" fill="#F8BBD9"/>
    <!-- Snout -->
    <rect x="80" y="24" width="6" height="8" fill="#FFFFFF"/>
    <!-- Mane (more blocky, higher contrast) -->
    <rect x="56" y="14" width="8" height="12" fill="#FF4081"/>
    <rect x="48" y="18" width="8" height="8" fill="#E91E63"/>
    <rect x="44" y="22" width="4" height="4" fill="#F8BBD9"/>
    <!-- Ears (bigger) -->
    <rect x="68" y="14" width="4" height="6" fill="#F8BBD9"/>
    <rect x="74" y="14" width="4" height="6" fill="#F8BBD9"/>
    <!-- Eye (much larger and more expressive) -->
    <rect x="70" y="22" width="6" height="4" fill="#000"/>
    <rect x="72" y="20" width="2" height="2" fill="#FFF"/>
    <!-- Front legs (back position, thicker) -->
    <rect x="20" y="54" width="6" height="20" fill="#E91E63"/>
    <rect x="32" y="54" width="6" height="16" fill="#E91E63"/>
    <!-- Back legs (forward position, thicker) -->
    <rect x="40" y="54" width="6" height="16" fill="#E91E63"/>
    <rect x="48" y="54" width="6" height="20" fill="#E91E63"/>
    <!-- Hooves (more contrast) -->
    <rect x="20" y="74" width="6" height="4" fill="#9C27B0"/>
    <rect x="32" y="70" width="6" height="4" fill="#9C27B0"/>
    <rect x="40" y="70" width="6" height="4" fill="#9C27B0"/>
    <rect x="48" y="74" width="6" height="4" fill="#9C27B0"/>
    <!-- Tail (bigger, more flowing) -->
    <rect x="8" y="40" width="6" height="12" fill="#FF4081"/>
    <rect x="2" y="46" width="6" height="8" fill="#E91E63"/>
    <rect x="0" y="50" width="4" height="4" fill="#F8BBD9"/>
  </g>
  
  <!-- Frame 3: Jumping (same colors as running) -->
  <g id="frame3" transform="translate(160,0)">
    <!-- Body (larger, higher for jumping) -->
    <rect x="12" y="28" width="40" height="20" fill="#E91E63"/>
    <!-- Neck -->
    <rect x="52" y="20" width="12" height="20" fill="#E91E63"/>
    <!-- Head (bigger and blockier) -->
    <rect x="64" y="12" width="16" height="16" fill="#F8BBD9"/>
    <!-- Snout -->
    <rect x="80" y="18" width="6" height="8" fill="#FFFFFF"/>
    <!-- Mane (more blocky, higher contrast) -->
    <rect x="56" y="8" width="8" height="12" fill="#FF4081"/>
    <rect x="48" y="12" width="8" height="8" fill="#E91E63"/>
    <rect x="44" y="16" width="4" height="4" fill="#F8BBD9"/>
    <!-- Ears (bigger) -->
    <rect x="68" y="8" width="4" height="6" fill="#F8BBD9"/>
    <rect x="74" y="8" width="4" height="6" fill="#F8BBD9"/>
    <!-- Eye (much larger and more expressive) -->
    <rect x="70" y="16" width="6" height="4" fill="#000"/>
    <rect x="72" y="14" width="2" height="2" fill="#FFF"/>
    <!-- Legs (tucked up for jumping, thicker) -->
    <rect x="22" y="48" width="6" height="12" fill="#E91E63"/>
    <rect x="34" y="48" width="6" height="12" fill="#E91E63"/>
    <rect x="42" y="48" width="6" height="12" fill="#E91E63"/>
    <rect x="50" y="48" width="6" height="12" fill="#E91E63"/>
    <!-- Hooves (more contrast) -->
    <rect x="22" y="60" width="6" height="4" fill="#9C27B0"/>
    <rect x="34" y="60" width="6" height="4" fill="#9C27B0"/>
    <rect x="42" y="60" width="6" height="4" fill="#9C27B0"/>
    <rect x="50" y="60" width="6" height="4" fill="#9C27B0"/>
    <!-- Tail (flowing upward dramatically) -->
    <rect x="8" y="32" width="6" height="12" fill="#FF4081"/>
    <rect x="2" y="28" width="6" height="12" fill="#E91E63"/>
    <rect x="0" y="24" width="4" height="8" fill="#F8BBD9"/>
  </g>
  
  <!-- Frame 4: Ducking -->
  <g id="frame4" transform="translate(240,0)">
    <!-- Body (lower, flatter, and larger) -->
    <rect x="12" y="44" width="40" height="16" fill="#E91E63"/>
    <!-- Neck (lower) -->
    <rect x="52" y="40" width="12" height="16" fill="#E91E63"/>
    <!-- Head (lower, bigger) -->
    <rect x="64" y="36" width="16" height="12" fill="#F8BBD9"/>
    <!-- Snout -->
    <rect x="80" y="40" width="6" height="6" fill="#FFFFFF"/>
    <!-- Mane (more blocky, higher contrast) -->
    <rect x="56" y="32" width="8" height="10" fill="#FF4081"/>
    <rect x="48" y="36" width="8" height="6" fill="#E91E63"/>
    <rect x="44" y="40" width="4" height="4" fill="#F8BBD9"/>
    <!-- Ears (bigger) -->
    <rect x="68" y="32" width="4" height="6" fill="#F8BBD9"/>
    <rect x="74" y="32" width="4" height="6" fill="#F8BBD9"/>
    <!-- Eye (much larger and more expressive) -->
    <rect x="70" y="38" width="6" height="4" fill="#000"/>
    <rect x="72" y="36" width="2" height="2" fill="#FFF"/>
    <!-- Legs (bent/crouched, thicker) -->
    <rect x="22" y="60" width="6" height="8" fill="#E91E63"/>
    <rect x="34" y="60" width="6" height="8" fill="#E91E63"/>
    <rect x="42" y="60" width="6" height="8" fill="#E91E63"/>
    <rect x="50" y="60" width="6" height="8" fill="#E91E63"/>
    <!-- Hooves (more contrast) -->
    <rect x="22" y="68" width="6" height="4" fill="#9C27B0"/>
    <rect x="34" y="68" width="6" height="4" fill="#9C27B0"/>
    <rect x="42" y="68" width="6" height="4" fill="#9C27B0"/>
    <rect x="50" y="68" width="6" height="4" fill="#9C27B0"/>
    <!-- Tail (flowing, bigger) -->
    <rect x="8" y="48" width="6" height="10" fill="#FF4081"/>
    <rect x="2" y="52" width="6" height="6" fill="#E91E63"/>
    <rect x="0" y="56" width="4" height="4" fill="#F8BBD9"/>
  </g>
</svg>